<svg width="42" height="38" viewBox="0 0 42 38" fill="none" xmlns="http://www.w3.org/2000/svg">
<path d="M1 16C1 7.71573 7.71573 1 16 1H26C34.2843 1 41 7.71573 41 16V22C41 30.2843 34.2843 37 26 37H16C7.71573 37 1 30.2843 1 22V16Z" fill="#102130"/>
<path d="M20 13L13 14V19H20V13Z" fill="white"/>
<path d="M29 12L21 13V19H29V12Z" fill="white"/>
<path d="M20 20H13V25L20 26V20Z" fill="white"/>
<path d="M29 20H21V26L29 27V20Z" fill="white"/>
<path d="M16 1.5H26V0.5H16V1.5ZM40.5 16V22H41.5V16H40.5ZM26 36.5H16V37.5H26V36.5ZM1.5 22V16H0.5V22H1.5ZM16 36.5C7.99187 36.5 1.5 30.0081 1.5 22H0.5C0.5 30.5604 7.43959 37.5 16 37.5V36.5ZM40.5 22C40.5 30.0081 34.0081 36.5 26 36.5V37.5C34.5604 37.5 41.5 30.5604 41.5 22H40.5ZM26 1.5C34.0081 1.5 40.5 7.99187 40.5 16H41.5C41.5 7.43959 34.5604 0.5 26 0.5V1.5ZM16 0.5C7.43959 0.5 0.5 7.43959 0.5 16H1.5C1.5 7.99187 7.99187 1.5 16 1.5V0.5Z" fill="#FF4654"/>
</svg>
